/* XPM */
static char *dummy[]={
"30 30 2 1",
"# c #0a0a0a",
". c #ffffff",
"..........##########..........",
"..........##########..........",
"..........##########..........",
"..........##########..........",
"..........##########..........",
"..........##########..........",
"..........##########..........",
"..........##########..........",
"..........##########..........",
"..........##########..........",
"....................##########",
"....................##########",
"....................##########",
"....................##########",
"....................##########",
"....................##########",
"....................##########",
"....................##########",
"....................##########",
"....................##########",
"##############################",
"##############################",
"##############################",
"##############################",
"##############################",
"##############################",
"##############################",
"##############################",
"##############################",
"##############################"};
